<?xml version="1.0" encoding="UTF-8"?>
<svg width="317px" height="227px" viewBox="0 0 317 227" version="1.1" xmlns="http://www.w3.org/2000/svg" xmlns:xlink="http://www.w3.org/1999/xlink">
    <!-- Generator: Sketch 42 (36781) - http://www.bohemiancoding.com/sketch -->
    <title>rotated-right-arrow-with-broken-line</title>
    <desc>Created with Sketch.</desc>
    <defs></defs>
    <g id="Page-1" stroke="none" stroke-width="1" fill="none" fill-rule="evenodd">
        <g id="rotated-right-arrow-with-broken-line" transform="translate(180.500000, 148.000000) rotate(142.000000) translate(-180.500000, -148.000000) translate(7.000000, 34.000000)" fill-rule="nonzero" fill="#000000">
            <g id="Group">
                <path d="M19.78,164.774 C15.496,161.713 8.764,165.998 4.48,162.326 C2.032,160.49 -1.64,163.55 0.808,165.998 C3.256,168.446 5.704,169.058 8.764,169.67 C11.824,170.282 16.72,171.506 19.78,169.67 C21.616,168.446 21.616,165.998 19.78,164.774 Z" id="Shape"></path>
                <path d="M66.292,167.834 C63.232,166.61 60.172,167.222 57.112,167.834 C53.44,167.834 50.38,168.446 46.708,168.446 C43.648,168.446 43.648,172.73 46.708,172.73 C50.38,173.341 53.44,173.341 57.112,173.341 C60.172,173.341 63.844,173.953 66.292,173.341 C68.74,172.118 68.74,169.058 66.292,167.834 Z" id="Shape"></path>
                <path d="M114.028,164.774 C106.072,163.549 99.34,167.834 91.384,168.446 C88.936,168.446 88.936,172.118 91.384,172.118 C94.444,172.118 98.116,171.506 101.176,171.506 C105.46,170.895 109.744,170.895 114.028,169.67 C116.476,169.67 116.476,165.386 114.028,164.774 Z" id="Shape"></path>
                <path d="M156.255,152.534 C153.195,153.758 151.359,156.818 148.911,158.654 C146.463,160.49 144.015,161.714 140.955,162.326 C138.507,162.938 139.731,165.998 141.567,165.998 C144.627,166.61 147.687,165.386 150.747,164.162 C153.807,162.326 158.091,159.266 159.315,156.206 C160.54,153.758 158.704,151.31 156.255,152.534 Z" id="Shape"></path>
                <path d="M191.139,111.53 C188.079,113.366 187.467,116.426 186.243,119.486 C184.407,123.77 181.347,127.442 178.899,131.114 C177.063,132.95 179.51,136.01 181.959,134.174 C185.02,131.114 188.079,128.054 190.527,124.994 C192.363,121.934 196.035,117.65 195.423,113.978 C194.812,112.142 192.975,110.306 191.139,111.53 Z" id="Shape"></path>
                <path d="M200.931,74.81 C200.32,72.362 196.035,72.362 196.035,74.81 C194.811,81.542 196.647,87.662 193.587,93.782 C192.975,95.618 195.423,96.842 196.648,95.006 C199.707,89.498 202.155,82.154 200.931,74.81 Z" id="Shape"></path>
                <path d="M188.691,26.462 C186.855,22.79 181.346,25.85 183.183,29.522 C185.63,35.03 189.302,40.538 190.527,46.658 C190.527,49.106 194.199,49.106 194.199,46.658 C194.812,39.926 192.363,32.582 188.691,26.462 Z" id="Shape"></path>
                <path d="M166.047,14.222 C164.211,10.55 161.763,7.49 158.091,5.654 C155.031,3.818 149.523,1.37 146.463,4.43 C145.239,5.654 145.239,7.49 146.463,8.102 C148.299,9.938 151.971,9.326 154.419,9.938 C158.091,11.162 160.539,13.61 162.375,16.67 C163.6,19.73 167.271,17.282 166.047,14.222 Z" id="Shape"></path>
                <path d="M116.476,0.758 C112.804,0.758 108.52,1.37 104.848,2.594 C103.012,3.206 101.788,5.654 103.624,7.49 C104.848,8.714 108.52,8.714 110.356,8.102 C111.58,8.102 112.192,6.878 112.192,5.654 C113.416,5.042 115.252,5.042 116.476,5.042 C119.536,5.042 119.536,0.758 116.476,0.758 Z" id="Shape"></path>
                <path d="M81.592,22.79 C76.696,22.79 72.412,24.014 69.352,27.074 C67.516,28.91 66.292,30.746 65.68,32.582 C64.456,35.03 62.62,38.09 62.62,40.538 C62.62,42.986 66.292,45.434 68.128,42.986 C70.576,40.538 71.188,35.642 73.024,32.582 C74.86,28.91 77.92,27.686 81.592,27.074 C84.04,27.074 84.651,23.402 81.592,22.79 Z" id="Shape"></path>
                <path d="M67.516,68.078 C63.232,72.362 63.232,78.482 62.62,83.99 C62.62,85.214 63.232,86.438 64.456,87.05 C65.68,87.662 66.292,87.662 67.516,87.05 C68.74,86.438 69.352,85.214 69.352,83.99 C68.74,79.706 68.128,74.198 71.188,70.526 C71.8,68.69 69.352,66.242 67.516,68.078 Z" id="Shape"></path>
                <path d="M75.472,119.486 C74.86,116.425 74.248,113.366 73.636,110.306 C73.636,108.47 70.576,108.47 70.576,110.306 C69.964,113.978 69.352,117.65 69.964,121.322 C69.964,124.382 71.188,128.666 74.86,129.278 C76.696,129.278 78.532,128.666 78.532,126.83 C77.919,123.771 76.083,121.935 75.472,119.486 Z" id="Shape"></path>
                <path d="M98.728,156.206 C93.832,151.922 87.1,148.862 85.876,142.13 C85.876,140.294 82.816,140.294 82.816,142.13 C82.816,149.474 89.548,158.042 96.28,159.878 C98.728,160.49 100.563,158.042 98.728,156.206 Z" id="Shape"></path>
                <path d="M142.792,187.418 C137.284,183.746 129.94,181.298 123.82,178.238 C121.372,177.013 119.536,180.074 121.984,181.298 C128.104,184.97 134.224,189.254 141.568,191.702 C143.404,192.926 145.24,188.642 142.792,187.418 Z" id="Shape"></path>
                <path d="M196.035,187.418 C188.691,184.97 178.899,187.418 172.167,191.09 C169.719,192.315 171.555,195.986 174.002,195.374 C181.346,192.314 188.69,194.15 196.034,192.314 C197.871,191.09 197.871,188.03 196.035,187.418 Z" id="Shape"></path>
                <path d="M251.728,183.134 C248.667,183.746 245.608,184.97 241.936,185.582 C238.875,186.194 235.816,186.806 232.755,187.418 C230.919,188.03 230.919,190.479 232.755,191.09 C240.1,192.315 248.055,192.926 254.175,188.03 C257.235,186.194 254.175,182.522 251.728,183.134 Z" id="Shape"></path>
                <path d="M299.463,183.746 C297.015,183.746 294.567,184.97 292.119,185.582 C288.447,186.194 284.775,184.97 281.715,183.746 C278.655,182.522 276.819,187.418 279.879,188.642 C285.999,191.703 297.016,194.151 301.911,188.642 C303.135,186.806 302.523,183.134 299.463,183.746 Z" id="Shape"></path>
                <path d="M344.751,178.85 C338.02,173.342 330.675,168.447 323.943,163.55 C317.211,158.654 309.255,151.31 301.298,149.474 C297.626,148.863 293.342,152.535 295.79,156.819 C299.462,162.327 305.582,165.386 311.09,169.058 C317.822,173.342 324.554,178.239 330.674,182.523 C312.926,194.762 293.954,206.39 278.042,221.079 C274.982,224.139 279.266,229.647 282.938,227.199 C302.522,213.123 323.33,200.271 344.137,188.031 C346.587,186.194 347.812,181.298 344.751,178.85 Z" id="Shape"></path>
            </g>
        </g>
    </g>
</svg>